<svg xmlns="http://www.w3.org/2000/svg" xmlns:xlink="http://www.w3.org/1999/xlink" width="370" zoomAndPan="magnify" viewBox="0 0 277.5 343.500003" height="458" preserveAspectRatio="xMidYMid meet" version="1.0"><defs><clipPath id="607981a6ba"><path d="M 0 0.0585938 L 277 0.0585938 L 277 342.941406 L 0 342.941406 Z M 0 0.0585938 " clip-rule="nonzero"/></clipPath><clipPath id="ae684f5eaf"><path d="M 15 0.0585938 L 166 0.0585938 L 166 146 L 15 146 Z M 15 0.0585938 " clip-rule="nonzero"/></clipPath><clipPath id="991673b3b0"><path d="M 96 220 L 276.898438 220 L 276.898438 342.941406 L 96 342.941406 Z M 96 220 " clip-rule="nonzero"/></clipPath></defs><g clip-path="url(#607981a6ba)"><path fill="#ffffff" d="M 0 0.0585938 L 277 0.0585938 L 277 342.941406 L 0 342.941406 Z M 0 0.0585938 " fill-opacity="1" fill-rule="nonzero"/><path fill="#ffffff" d="M 0 0.0585938 L 277 0.0585938 L 277 342.941406 L 0 342.941406 Z M 0 0.0585938 " fill-opacity="1" fill-rule="nonzero"/></g><g clip-path="url(#ae684f5eaf)"><path fill="#110c10" d="M 94.914062 0.117188 C 54.527344 0.117188 15.394531 19.28125 15.394531 65.359375 C 15.394531 105.859375 48.851562 126.171875 83.503906 145.671875 C 90.570312 135.789062 100.179688 128.902344 111.316406 124.585938 C 76.21875 104.960938 43.128906 86.660156 43.128906 53.535156 C 43.128906 22.546875 70.445312 4.171875 98.175781 4.171875 C 128.347656 4.171875 159.339844 25.375 159.339844 74.3125 L 165.046875 22.929688 C 148.734375 8.679688 121.421875 0.117188 94.914062 0.117188 Z M 94.914062 0.117188 " fill-opacity="1" fill-rule="nonzero"/></g><path fill="#110c10" d="M 145.773438 145.140625 C 136.566406 150.644531 129.179688 159.777344 123.867188 170.144531 C 144.25 184.898438 159.339844 202.804688 159.339844 229.730469 C 159.339844 270.507812 127.53125 292.121094 93.6875 292.121094 C 53.726562 292.121094 10.910156 261.941406 14.992188 195.886719 L -0.101562 258.710938 C 23.960938 284.402344 60.660156 296.640625 95.730469 296.640625 C 146.289062 296.640625 193.183594 270.535156 193.183594 219.601562 C 193.183594 184.972656 172.125 162.925781 145.773438 145.140625 Z M 145.773438 145.140625 " fill-opacity="1" fill-rule="nonzero"/><path fill="#059669" d="M 93.847656 233.792969 C 93.847656 162.363281 134.792969 126.839844 175.734375 126.839844 C 178.597656 126.84375 181.445312 127.019531 184.285156 127.371094 L 183.730469 125.027344 C 181.070312 124.855469 178.40625 124.742188 175.734375 124.742188 C 121.339844 124.742188 66.652344 160.90625 66.652344 233.828125 C 66.554688 246.835938 68.480469 259.535156 72.425781 271.929688 C 79.949219 276.46875 90.464844 278.980469 100.433594 278.988281 C 96.269531 265.929688 93.847656 250.902344 93.847656 233.792969 Z M 93.847656 233.792969 " fill-opacity="1" fill-rule="nonzero"/><g clip-path="url(#991673b3b0)"><path fill="#059669" d="M 257.164062 220.851562 C 257.464844 225.027344 257.621094 229.339844 257.625 233.792969 C 257.625 304.925781 216.683594 340.789062 175.734375 340.789062 C 153.949219 340.789062 132.222656 330.527344 116.605469 310.304688 C 109.890625 311.476562 103.136719 311.800781 96.34375 311.277344 C 117.160156 332.261719 146.363281 342.882812 175.734375 342.882812 C 230.132812 342.882812 276.898438 306.414062 276.898438 233.792969 C 276.898438 229.339844 276.699219 225.027344 276.292969 220.851562 Z M 257.164062 220.851562 " fill-opacity="1" fill-rule="nonzero"/></g></svg>